<?xml version="1.0" standalone="no"?>
<!DOCTYPE svg PUBLIC "-//W3C//DTD SVG 20010904//EN"
 "http://www.w3.org/TR/2001/REC-SVG-20010904/DTD/svg10.dtd">
<svg version="1.0" xmlns="http://www.w3.org/2000/svg"
 width="600.000000pt" height="600.000000pt" viewBox="0 0 600.000000 600.000000"
 preserveAspectRatio="xMidYMid meet">
<metadata>
Created by potrace 1.14, written by Peter Selinger 2001-2017
</metadata>
<g transform="translate(0.000000,600.000000) scale(0.100000,-0.100000)"
fill="#000000" stroke="none">
<path d="M2114 5623 c-14 -32 -41 -89 -59 -128 -17 -38 -38 -86 -45 -105 -7
-19 -19 -42 -27 -51 -7 -8 -13 -23 -13 -32 0 -9 -5 -19 -10 -22 -6 -4 -8 -11
-5 -16 4 -5 1 -9 -4 -9 -6 0 -11 -4 -11 -9 0 -5 -8 -26 -17 -47 -9 -22 -17
-43 -17 -47 -1 -4 -5 -11 -11 -15 -5 -4 -11 -14 -13 -22 -2 -8 -12 -33 -23
-56 -10 -24 -19 -48 -19 -53 0 -6 -4 -11 -10 -11 -5 0 -10 -6 -10 -14 0 -8 -6
-27 -14 -43 -8 -15 -26 -53 -40 -83 -13 -30 -54 -120 -91 -200 -37 -80 -68
-149 -69 -155 -3 -9 -19 -45 -98 -212 -17 -38 -32 -70 -32 -73 -1 -3 -14 -31
-29 -64 -15 -32 -27 -62 -27 -67 0 -5 -4 -9 -10 -9 -5 0 -9 -3 -8 -7 3 -13
-25 -83 -34 -83 -4 0 -7 -3 -6 -7 1 -5 -2 -18 -6 -31 -7 -22 -9 -22 -25 -7
-16 14 -20 14 -31 0 -10 -12 -10 -16 2 -20 17 -7 17 -77 0 -83 -6 -2 -8 -10
-5 -18 3 -8 0 -14 -6 -14 -6 0 -11 -5 -11 -11 0 -6 -16 -45 -36 -87 -20 -42
-37 -81 -38 -87 -2 -5 -14 -32 -27 -60 -13 -27 -24 -52 -24 -55 -1 -3 -19 -41
-40 -85 -21 -44 -39 -82 -40 -85 -1 -3 -8 -18 -15 -35 -7 -16 -14 -32 -15 -35
0 -3 -11 -25 -22 -50 -77 -164 -104 -224 -109 -245 -3 -13 -12 -29 -20 -36 -8
-6 -14 -16 -14 -21 0 -11 -8 -29 -106 -243 -15 -33 -27 -63 -26 -67 1 -5 -3
-8 -9 -8 -5 0 -7 -5 -4 -10 3 -5 1 -10 -6 -10 -7 0 -10 -3 -6 -6 3 -3 -7 -29
-21 -57 -15 -29 -27 -54 -28 -57 -2 -9 -21 -53 -55 -125 -18 -38 -32 -76 -32
-82 0 -7 -4 -13 -9 -13 -4 0 -8 -4 -8 -9 0 -5 -21 -53 -46 -108 -41 -86 -63
-137 -69 -153 -1 -3 -17 -36 -35 -75 -19 -38 -34 -72 -35 -75 -3 -8 -22 -52
-51 -115 -15 -33 -28 -62 -29 -65 -1 -3 -15 -34 -32 -70 -17 -36 -43 -92 -57
-125 -15 -33 -38 -82 -51 -110 -13 -27 -33 -72 -45 -100 -12 -27 -38 -83 -56
-123 -19 -41 -36 -79 -37 -85 -1 -7 -5 -14 -8 -17 -4 -3 -10 -15 -13 -28 -7
-20 -5 -22 16 -17 13 4 31 8 39 9 8 2 21 6 29 9 13 4 45 12 133 33 9 2 26 6
37 9 11 3 29 7 41 10 11 2 29 7 39 10 10 3 27 8 37 10 17 4 132 32 163 40 105
27 147 38 160 39 9 1 20 5 25 8 12 7 90 21 91 16 0 -1 7 2 15 8 8 6 22 10 32
9 9 -2 17 2 17 8 0 5 2 8 5 5 3 -3 38 3 78 14 40 11 83 21 97 24 14 3 33 7 42
10 9 3 26 7 37 9 12 3 29 7 39 10 205 53 252 65 277 70 48 10 49 10 63 18 6 5
12 6 12 4 0 -5 179 39 185 45 2 1 29 57 60 123 31 66 66 140 78 165 12 25 22
47 22 50 3 14 31 66 38 71 5 3 8 8 7 10 -3 8 18 57 126 288 24 51 44 97 44
102 0 22 19 5 37 -33 70 -144 97 -204 95 -210 -1 -5 3 -8 8 -8 5 0 9 -3 8 -7
-1 -5 14 -42 34 -83 81 -168 112 -235 110 -242 -1 -3 5 -12 13 -18 8 -7 15
-21 15 -31 0 -11 5 -19 12 -19 6 0 8 -3 5 -6 -4 -4 0 -19 8 -33 26 -47 135
-282 135 -292 0 -5 5 -9 10 -9 6 0 10 -6 10 -13 0 -8 17 -47 37 -88 20 -41 36
-80 34 -86 -1 -7 2 -13 7 -13 9 0 25 -37 23 -53 -1 -4 4 -7 10 -7 5 0 7 -5 4
-10 -3 -6 -1 -10 6 -10 7 0 10 -3 6 -6 -3 -3 5 -25 18 -49 13 -23 21 -45 18
-49 -4 -3 -2 -6 4 -6 6 0 13 -10 17 -22 3 -13 6 -24 6 -25 1 -2 14 -28 30 -59
17 -31 30 -62 30 -70 0 -8 5 -14 11 -14 5 0 7 -4 4 -10 -3 -5 -3 -10 2 -10 4
0 17 -21 27 -48 11 -26 38 -86 62 -134 23 -48 39 -89 36 -92 -3 -3 4 -6 16 -6
12 0 21 3 20 8 -3 12 25 82 34 82 4 0 8 9 8 20 0 11 5 20 11 20 5 0 8 4 4 9
-3 5 -1 12 5 16 5 3 10 15 10 26 0 10 4 19 9 19 5 0 13 9 16 21 4 11 28 64 53
117 25 54 47 104 48 112 2 8 8 16 13 18 6 2 11 10 11 18 0 8 4 22 10 32 11 19
160 333 160 337 0 1 33 72 74 156 40 85 83 177 95 204 37 83 56 120 64 123 4
2 7 10 7 17 0 7 11 36 25 63 14 28 25 55 25 61 0 6 5 11 11 11 5 0 8 4 4 9 -3
5 -1 12 5 16 6 4 8 11 5 16 -4 5 -1 9 4 9 6 0 11 4 11 9 0 5 30 71 67 148 36
76 68 144 69 152 4 20 34 49 34 33 0 -7 16 -46 35 -86 19 -41 35 -79 35 -85 0
-6 4 -11 10 -11 5 0 9 -3 8 -7 -2 -5 9 -33 23 -63 55 -118 69 -150 66 -153 -1
-1 8 -17 21 -34 13 -18 21 -33 18 -33 -2 0 17 -46 43 -103 74 -156 101 -217
101 -226 0 -15 83 -45 123 -44 9 0 17 -3 17 -7 0 -4 6 -7 13 -8 6 0 21 -3 32
-5 11 -3 40 -10 65 -16 25 -7 53 -14 63 -16 9 -3 25 -7 35 -9 10 -2 47 -11 83
-20 35 -9 73 -18 84 -21 11 -2 47 -11 80 -20 33 -9 67 -18 75 -20 8 -2 15 -4
15 -5 0 -1 9 -3 20 -5 23 -3 53 -10 110 -25 22 -6 49 -13 60 -15 45 -10 63
-15 130 -33 39 -10 77 -17 85 -17 8 0 17 -2 20 -6 5 -6 109 -33 175 -45 17 -3
32 -9 35 -12 3 -4 14 -8 25 -9 23 -1 57 -9 88 -19 12 -4 29 -8 37 -9 8 -1 44
-10 80 -19 36 -9 74 -18 85 -21 11 -2 35 -9 54 -14 41 -12 49 -8 30 15 -8 10
-13 20 -13 23 2 9 -14 48 -50 126 -19 39 -37 80 -41 93 -3 12 -11 22 -16 22
-6 0 -8 3 -6 8 3 4 -3 25 -14 46 -10 22 -19 46 -19 53 0 7 -3 13 -8 13 -4 0
-12 12 -18 27 -14 33 -27 66 -29 73 -1 3 -17 39 -37 80 -66 138 -117 251 -123
270 -1 3 -16 37 -34 75 -58 122 -74 160 -73 168 1 4 -3 7 -8 7 -6 0 -10 9 -10
20 0 11 -5 20 -12 20 -6 0 -9 3 -6 6 4 3 -14 49 -39 102 -55 119 -76 165 -77
172 -1 3 -13 30 -28 60 -14 30 -36 78 -48 105 -12 28 -31 70 -43 95 -11 25
-19 47 -19 50 1 3 -5 14 -12 25 -7 11 -31 61 -53 110 -58 129 -91 201 -125
275 -17 36 -50 110 -75 165 -25 55 -58 129 -75 165 -35 75 -61 133 -63 140 -2
5 -26 58 -77 170 -12 25 -22 51 -24 59 -1 8 -7 17 -12 20 -20 13 -21 58 -3 94
23 44 17 53 -19 27 l-28 -20 -13 33 c-7 17 -28 66 -47 107 -20 41 -36 77 -37
80 -1 3 -12 28 -24 55 -40 87 -55 120 -57 125 0 3 -11 26 -23 52 -12 26 -22
51 -22 55 0 5 -7 15 -14 23 -7 8 -14 17 -14 20 0 10 -19 56 -65 153 -25 55
-46 100 -46 102 0 2 -17 38 -37 82 -21 43 -37 80 -38 83 0 3 -12 30 -27 60
-14 30 -35 75 -46 100 -11 25 -37 81 -57 125 -38 84 -57 127 -60 135 0 3 -13
30 -27 60 -40 84 -88 189 -114 248 l-23 52 -861 0 -861 0 -25 -57z m943 -1573
c19 -41 49 -106 68 -145 18 -38 43 -92 55 -120 12 -27 28 -63 36 -79 8 -16 14
-35 14 -43 0 -7 4 -13 9 -13 5 0 13 -10 16 -22 4 -13 20 -50 35 -83 91 -195
110 -236 110 -239 0 -5 -108 -57 -116 -56 -4 1 -10 -2 -13 -7 -3 -5 -37 -25
-76 -43 -38 -19 -83 -43 -100 -55 -16 -11 -31 -19 -33 -17 -1 1 -15 -4 -32
-13 -28 -15 -32 -13 -227 85 -112 57 -197 106 -195 113 1 7 11 30 21 52 11 22
27 58 36 80 10 22 35 76 55 120 20 44 45 98 55 120 10 22 35 76 55 120 80 169
140 305 140 315 0 5 4 10 9 10 5 0 12 10 15 23 l7 22 11 -25 c7 -14 27 -59 45
-100z"/>
<path d="M1285 3960 c-3 -5 -1 -10 4 -10 6 0 11 5 11 10 0 6 -2 10 -4 10 -3 0
-8 -4 -11 -10z"/>
</g>
</svg>
